<?xml version="1.0" encoding="UTF-8"?>
<svg id="Layer_1" data-name="Layer 1" xmlns="http://www.w3.org/2000/svg" width="1864.2" height="1880.8" viewBox="0 0 1864.2 1880.8">
  <g>
    <path d="M929.3,688.4c-155.7-5.4-196.5,126.9-196.5,126.9l-52.3,141.3s-574,37.4-574-26.7-18.9-321.1,133.5-520.6C387.3,216.3,600.4,68.6,939.4,59.6c349.7-9.3,651.1,159.4,761.4,254,60.4,54.8,98.4,134,98.4,222,0,165.5-134.2,299.7-299.7,299.7-250.1,0-318.4-138.1-570.3-146.8Z" fill="#fff" stroke="#000" stroke-linecap="round" stroke-linejoin="round" stroke-width="90"/>
    <circle cx="695.4" cy="1480.3" r="331.5" fill="#ffccae" stroke="#000" stroke-linecap="round" stroke-linejoin="round" stroke-width="90"/>
    <path d="M805.6,809.8s10.1,189.8,74.7,282.7l-630,357.4s-216.1-242.3-181.7-640.1h737Z" fill="#fff" stroke="#000" stroke-linecap="round" stroke-linejoin="round" stroke-width="90"/>
  </g>
  <circle cx="1496.9" cy="534.8" r="5" fill="none"/>
</svg>